<svg width="96" height="96" viewBox="0 0 96 96" fill="none" xmlns="http://www.w3.org/2000/svg">
<path d="M44 2.30935C46.4752 0.880283 49.5248 0.880284 52 2.30935L85.5692 21.6905C88.0444 23.1196 89.5692 25.7606 89.5692 28.6187V67.3811C89.5692 70.2393 88.0444 72.8803 85.5692 74.3093L52 93.6905C49.5248 95.1196 46.4752 95.1196 44 93.6905L10.4308 74.3093C7.95557 72.8803 6.43078 70.2393 6.43078 67.3811V28.6187C6.43078 25.7606 7.95557 23.1196 10.4308 21.6905L44 2.30935Z" fill="white"/>
<path fill-rule="evenodd" clip-rule="evenodd" d="M84.1907 22.9024L51.5701 4.06896C49.3322 2.77689 46.575 2.77689 44.337 4.06896L11.7165 22.9024C9.47853 24.1945 8.09991 26.5824 8.09991 29.1665V66.8335C8.09991 69.4176 9.47853 71.8055 11.7165 73.0975L44.337 91.931C46.575 93.2231 49.3322 93.2231 51.5701 91.931L84.1907 73.0975C86.4286 71.8055 87.8072 69.4176 87.8072 66.8335V29.1665C87.8072 26.5824 86.4286 24.1945 84.1907 22.9024ZM53.1201 1.38436C49.923 -0.461454 45.9841 -0.461455 42.7871 1.38436L10.1665 20.2178C6.96946 22.0637 5 25.4749 5 29.1665V66.8335C5 70.5251 6.96946 73.9363 10.1665 75.7821L42.7871 94.6156C45.9841 96.4614 49.923 96.4614 53.1201 94.6156L85.7406 75.7821C88.9377 73.9363 90.9071 70.5251 90.9071 66.8335V29.1665C90.9071 25.4749 88.9377 22.0637 85.7406 20.2178L53.1201 1.38436Z" fill="#392E2E"/>
<path d="M48 25.6458C35.6761 25.6458 25.6457 35.6808 25.6457 48C25.6457 60.3192 35.6808 70.3543 48 70.3543C60.3192 70.3543 70.3543 60.3192 70.3543 48C70.3543 35.6808 60.3192 25.6458 48 25.6458V25.6458ZM47.9669 27.632C48.3491 27.6419 48.7123 27.8012 48.9791 28.0759C49.2459 28.3507 49.3952 28.7191 49.3951 29.1027C49.3951 29.4928 49.2401 29.8669 48.9643 30.1427C48.6885 30.4185 48.3144 30.5734 47.9243 30.5734C47.5343 30.5734 47.1602 30.4185 46.8844 30.1427C46.6085 29.8669 46.4536 29.4928 46.4536 29.1027C46.4535 28.9059 46.4929 28.7111 46.5695 28.5299C46.646 28.3486 46.7582 28.1845 46.8993 28.0474C47.0404 27.9102 47.2076 27.8028 47.391 27.7315C47.5744 27.6601 47.7702 27.6263 47.9669 27.632V27.632ZM51.334 30.0532C53.9159 30.5368 56.3616 31.5767 58.5012 33.1005C60.6408 34.6244 62.423 36.5957 63.7241 38.8777L61.9886 42.7933C61.6906 43.4696 61.998 44.2641 62.6695 44.5667L66.0083 46.0469C66.1118 47.0906 66.1245 48.1412 66.0461 49.187H64.1876C64.0031 49.187 63.9275 49.31 63.9275 49.4897V50.3409C63.9275 52.346 62.7972 52.7859 61.8041 52.8946C60.8583 53.0034 59.8132 52.4974 59.6808 51.9204C59.1228 48.7851 58.1959 48.1183 56.7298 46.9596C58.5505 45.8058 60.4422 44.0986 60.4422 41.8192C60.4422 39.3553 58.7539 37.8042 57.6047 37.0428C55.9874 35.9788 54.1998 35.7659 53.7174 35.7659H34.5174C37.1723 32.8001 40.731 30.7922 44.6424 30.0532L46.9076 32.4272C47.4183 32.9616 48.2648 32.9853 48.7992 32.4698L51.334 30.0532ZM30.4315 40.9395C30.8142 40.9506 31.1774 41.1105 31.4441 41.3851C31.7108 41.6597 31.8599 42.0275 31.8597 42.4103C31.8597 42.8003 31.7047 43.1744 31.4289 43.4503C31.1531 43.7261 30.779 43.881 30.389 43.881C29.9989 43.881 29.6248 43.7261 29.349 43.4503C29.0732 43.1744 28.9182 42.8003 28.9182 42.4103C28.9181 42.2135 28.9575 42.0187 29.0341 41.8374C29.1107 41.6562 29.2228 41.4921 29.3639 41.355C29.505 41.2178 29.6722 41.1104 29.8556 41.039C30.039 40.9677 30.2348 40.9339 30.4315 40.9395V40.9395ZM65.4975 41.0058C65.8802 41.0168 66.2434 41.1767 66.5101 41.4513C66.7768 41.7259 66.9259 42.0937 66.9257 42.4765C66.9257 42.8666 66.7708 43.2406 66.4949 43.5165C66.2191 43.7923 65.845 43.9472 65.455 43.9472C65.0649 43.9472 64.6908 43.7923 64.415 43.5165C64.1392 43.2406 63.9842 42.8666 63.9842 42.4765C63.9841 42.2797 64.0236 42.0849 64.1001 41.9037C64.1767 41.7224 64.2888 41.5583 64.4299 41.4212C64.571 41.284 64.7382 41.1766 64.9216 41.1052C65.105 41.0339 65.3008 41.0001 65.4975 41.0058V41.0058ZM33.2027 41.2422H35.7659V52.8H30.5923C29.9534 50.5563 29.7542 48.2102 30.0059 45.8909L33.1744 44.4816C33.8506 44.179 34.158 43.3892 33.8554 42.7129L33.2027 41.2422ZM43.8999 41.3652H50.0051C50.322 41.3652 52.2325 41.7293 52.2325 43.1622C52.2325 44.3492 50.7665 44.7748 49.5606 44.7748H43.8952L43.8999 41.3652ZM43.8999 49.6694H48.5769C49.0026 49.6694 50.8611 49.7924 51.4522 52.1663C51.6366 52.8946 52.0481 55.2686 52.3271 56.03C52.6061 56.8812 53.7363 58.5837 54.9423 58.5837H62.575C62.0634 59.2687 61.504 59.9166 60.9009 60.5226L57.7939 59.8558C57.0703 59.6997 56.3562 60.1632 56.2002 60.8867L55.4625 64.3295C53.0901 65.4041 50.5138 65.9541 47.9095 65.9419C45.3051 65.9296 42.7341 65.3555 40.372 64.2586L39.6343 60.8158C39.4782 60.0923 38.7689 59.6288 38.0453 59.7849L35.0045 60.4375C34.4402 59.8554 33.9157 59.2361 33.4345 58.5837H48.2223C48.3878 58.5837 48.5013 58.5553 48.5013 58.3993V53.1689C48.5013 53.0176 48.3878 52.9845 48.2223 52.9845H43.8952L43.8999 49.6694ZM37.0759 61.6481C37.4585 61.6592 37.8217 61.819 38.0884 62.0936C38.3551 62.3683 38.5042 62.7361 38.504 63.1189C38.504 63.5089 38.3491 63.883 38.0733 64.1588C37.7974 64.4346 37.4234 64.5896 37.0333 64.5896C36.6432 64.5896 36.2691 64.4346 35.9933 64.1588C35.7175 63.883 35.5626 63.5089 35.5626 63.1189C35.5625 62.9221 35.6019 62.7273 35.6784 62.546C35.755 62.3648 35.8672 62.2007 36.0083 62.0635C36.1494 61.9264 36.3166 61.819 36.4999 61.7476C36.6833 61.6763 36.8792 61.6424 37.0759 61.6481V61.6481ZM58.8532 61.7143C59.2358 61.7254 59.5991 61.8852 59.8658 62.1599C60.1324 62.4345 60.2815 62.8023 60.2814 63.1851C60.2814 63.5751 60.1264 63.9492 59.8506 64.225C59.5748 64.5008 59.2007 64.6558 58.8106 64.6558C58.4206 64.6558 58.0465 64.5008 57.7707 64.225C57.4948 63.9492 57.3399 63.5751 57.3399 63.1851C57.3398 62.9883 57.3792 62.7935 57.4558 62.6122C57.5323 62.431 57.6445 62.2669 57.7856 62.1297C57.9267 61.9926 58.0939 61.8852 58.2773 61.8138C58.4607 61.7425 58.6565 61.7086 58.8532 61.7143V61.7143Z" fill="#392E2E"/>
<path fill-rule="evenodd" clip-rule="evenodd" d="M69.1058 48C69.1058 53.5976 66.8822 58.966 62.9241 62.9241C58.966 66.8822 53.5976 69.1058 48 69.1058C42.4024 69.1058 37.034 66.8822 33.0759 62.9241C29.1178 58.966 26.8942 53.5976 26.8942 48C26.8942 42.4024 29.1178 37.034 33.0759 33.0759C37.034 29.1178 42.4024 26.8942 48 26.8942C53.5976 26.8942 58.966 29.1178 62.9241 33.0759C66.8822 37.034 69.1058 42.4024 69.1058 48V48ZM68.7086 45.9618L72 48L68.7086 50.0382L71.5366 52.6818L67.9141 54.039L70.1746 57.1838L66.3488 57.8081L67.9566 61.336L64.0835 61.1988L64.9726 64.9726L61.1988 64.0835L61.336 67.9566L57.8081 66.3488L57.1838 70.1746L54.039 67.9141L52.6818 71.5366L50.0382 68.7086L48 72L45.9618 68.7086L43.3182 71.5366L41.961 67.9141L38.8162 70.1746L38.1919 66.3488L34.664 67.9566L34.8012 64.0835L31.0274 64.9726L31.9165 61.1988L28.0434 61.336L29.6512 57.8081L25.8254 57.1838L28.0859 54.039L24.4634 52.6818L27.2914 50.0382L24 48L27.2914 45.9618L24.4634 43.3182L28.0859 41.961L25.8254 38.8162L29.6512 38.1919L28.0434 34.664L31.9165 34.8012L31.0274 31.0274L34.8012 31.9165L34.664 28.0433L38.1919 29.6512L38.8162 25.8254L41.961 28.0859L43.3182 24.4634L45.9618 27.2914L48 24L50.0382 27.2914L52.6818 24.4634L54.039 28.0859L57.1838 25.8254L57.8081 29.6512L61.336 28.0433L61.1988 31.9165L64.9726 31.0274L64.0835 34.8012L67.9566 34.664L66.3488 38.1919L70.1746 38.8162L67.9141 41.961L71.5366 43.3182L68.7086 45.9618Z" fill="#392E2E" stroke="#392E2E" stroke-width="3" stroke-linecap="round" stroke-linejoin="round"/>
</svg>
